G04*
G04 #@! TF.GenerationSoftware,Altium Limited,Altium Designer,20.0.9 (164)*
G04*
G04 Layer_Color=8421504*
%FSLAX25Y25*%
%MOIN*%
G70*
G01*
G75*
%ADD10C,0.12598*%
%ADD11O,0.59055X0.31496*%
%ADD12C,0.01181*%
G36*
X33870Y15569D02*
X34154D01*
X34460Y15547D01*
X34766Y15525D01*
X34897Y15514D01*
X35029Y15503D01*
X35138Y15481D01*
X35225Y15459D01*
X35236D01*
X35258Y15449D01*
X35291Y15438D01*
X35335Y15427D01*
X35455Y15372D01*
X35608Y15306D01*
X35772Y15208D01*
X35958Y15077D01*
X36132Y14913D01*
X36307Y14716D01*
Y14705D01*
X36329Y14694D01*
X36351Y14661D01*
X36373Y14618D01*
X36417Y14552D01*
X36450Y14487D01*
X36493Y14410D01*
X36537Y14323D01*
X36613Y14104D01*
X36690Y13864D01*
X36734Y13568D01*
X36755Y13252D01*
Y13241D01*
Y13219D01*
Y13186D01*
Y13131D01*
X36745Y13077D01*
Y13000D01*
X36723Y12847D01*
X36690Y12661D01*
X36646Y12454D01*
X36581Y12257D01*
X36493Y12071D01*
X36482Y12049D01*
X36450Y11995D01*
X36395Y11907D01*
X36318Y11798D01*
X36231Y11689D01*
X36111Y11557D01*
X35990Y11437D01*
X35848Y11328D01*
X35826Y11317D01*
X35783Y11284D01*
X35706Y11241D01*
X35608Y11186D01*
X35488Y11120D01*
X35357Y11066D01*
X35214Y11011D01*
X35061Y10967D01*
X35039D01*
X35007Y10956D01*
X34963D01*
X34908Y10945D01*
X34832Y10934D01*
X34755Y10924D01*
X34657D01*
X34559Y10913D01*
X34438Y10902D01*
X34307Y10891D01*
X34165Y10880D01*
X34012D01*
X33848Y10869D01*
X32493D01*
Y8016D01*
X30963D01*
Y15580D01*
X33750D01*
X33870Y15569D01*
D02*
G37*
G36*
X21749Y14301D02*
X19519D01*
Y8016D01*
X17989D01*
Y14301D01*
X15748D01*
Y15580D01*
X21749D01*
Y14301D01*
D02*
G37*
G36*
X26241Y15711D02*
X26350D01*
X26492Y15689D01*
X26656Y15667D01*
X26842Y15634D01*
X27039Y15591D01*
X27246Y15536D01*
X27465Y15470D01*
X27684Y15383D01*
X27913Y15285D01*
X28132Y15164D01*
X28350Y15022D01*
X28558Y14858D01*
X28755Y14672D01*
X28766Y14661D01*
X28798Y14629D01*
X28853Y14563D01*
X28908Y14487D01*
X28984Y14377D01*
X29072Y14246D01*
X29159Y14093D01*
X29258Y13918D01*
X29356Y13733D01*
X29443Y13514D01*
X29531Y13273D01*
X29607Y13022D01*
X29673Y12738D01*
X29717Y12443D01*
X29749Y12126D01*
X29760Y11787D01*
Y11765D01*
Y11710D01*
X29749Y11612D01*
Y11481D01*
X29728Y11328D01*
X29706Y11153D01*
X29673Y10945D01*
X29640Y10738D01*
X29585Y10508D01*
X29520Y10268D01*
X29432Y10027D01*
X29334Y9787D01*
X29225Y9557D01*
X29083Y9328D01*
X28930Y9109D01*
X28755Y8901D01*
X28744Y8890D01*
X28711Y8858D01*
X28656Y8803D01*
X28569Y8738D01*
X28471Y8661D01*
X28350Y8574D01*
X28208Y8486D01*
X28055Y8388D01*
X27869Y8289D01*
X27673Y8202D01*
X27454Y8115D01*
X27214Y8038D01*
X26962Y7972D01*
X26689Y7918D01*
X26405Y7885D01*
X26099Y7874D01*
X26022D01*
X25935Y7885D01*
X25826Y7896D01*
X25683Y7907D01*
X25519Y7929D01*
X25334Y7961D01*
X25137Y8005D01*
X24918Y8060D01*
X24711Y8125D01*
X24481Y8213D01*
X24262Y8311D01*
X24033Y8421D01*
X23825Y8563D01*
X23618Y8716D01*
X23421Y8901D01*
X23410Y8912D01*
X23377Y8945D01*
X23333Y9011D01*
X23268Y9087D01*
X23191Y9197D01*
X23104Y9328D01*
X23017Y9470D01*
X22929Y9645D01*
X22831Y9831D01*
X22743Y10049D01*
X22656Y10279D01*
X22579Y10530D01*
X22514Y10803D01*
X22470Y11098D01*
X22437Y11415D01*
X22426Y11743D01*
Y11754D01*
Y11798D01*
Y11852D01*
X22437Y11940D01*
Y12038D01*
X22448Y12148D01*
X22459Y12279D01*
X22470Y12421D01*
X22514Y12727D01*
X22568Y13055D01*
X22656Y13383D01*
X22765Y13689D01*
Y13700D01*
X22776Y13711D01*
X22798Y13743D01*
X22809Y13787D01*
X22874Y13896D01*
X22951Y14039D01*
X23049Y14202D01*
X23169Y14366D01*
X23312Y14552D01*
X23465Y14727D01*
X23475Y14738D01*
X23486Y14749D01*
X23541Y14804D01*
X23640Y14891D01*
X23760Y14989D01*
X23902Y15099D01*
X24066Y15219D01*
X24252Y15328D01*
X24448Y15416D01*
X24459D01*
X24481Y15427D01*
X24525Y15449D01*
X24579Y15459D01*
X24645Y15492D01*
X24722Y15514D01*
X24820Y15536D01*
X24918Y15569D01*
X25159Y15623D01*
X25432Y15678D01*
X25749Y15711D01*
X26077Y15722D01*
X26153D01*
X26241Y15711D01*
D02*
G37*
G36*
X1211488Y18160D02*
X1210034D01*
Y19505D01*
X1211488D01*
Y18160D01*
D02*
G37*
G36*
X1193267D02*
X1191814D01*
Y19505D01*
X1193267D01*
Y18160D01*
D02*
G37*
G36*
X1198066Y17537D02*
X1198186Y17526D01*
X1198317Y17504D01*
X1198459Y17472D01*
X1198612Y17428D01*
X1198765Y17373D01*
X1198787Y17362D01*
X1198831Y17341D01*
X1198907Y17308D01*
X1198995Y17253D01*
X1199093Y17188D01*
X1199191Y17111D01*
X1199290Y17023D01*
X1199377Y16925D01*
X1199388Y16914D01*
X1199410Y16882D01*
X1199443Y16827D01*
X1199487Y16750D01*
X1199541Y16663D01*
X1199585Y16554D01*
X1199629Y16444D01*
X1199661Y16313D01*
Y16302D01*
X1199672Y16248D01*
X1199694Y16171D01*
X1199705Y16062D01*
X1199727Y15931D01*
X1199738Y15756D01*
X1199749Y15570D01*
Y15340D01*
Y11941D01*
X1198295D01*
Y14728D01*
Y14739D01*
Y14772D01*
Y14816D01*
Y14870D01*
Y14947D01*
Y15023D01*
X1198284Y15209D01*
X1198273Y15395D01*
X1198251Y15592D01*
X1198230Y15756D01*
X1198219Y15821D01*
X1198197Y15876D01*
Y15887D01*
X1198175Y15920D01*
X1198153Y15963D01*
X1198120Y16029D01*
X1198022Y16160D01*
X1197967Y16226D01*
X1197891Y16280D01*
X1197880Y16291D01*
X1197858Y16302D01*
X1197814Y16324D01*
X1197749Y16357D01*
X1197672Y16390D01*
X1197596Y16411D01*
X1197497Y16422D01*
X1197388Y16433D01*
X1197322D01*
X1197257Y16422D01*
X1197169Y16411D01*
X1197060Y16379D01*
X1196951Y16346D01*
X1196830Y16291D01*
X1196710Y16226D01*
X1196699Y16215D01*
X1196667Y16193D01*
X1196612Y16138D01*
X1196546Y16084D01*
X1196481Y15996D01*
X1196415Y15909D01*
X1196350Y15789D01*
X1196306Y15668D01*
Y15657D01*
X1196284Y15603D01*
X1196273Y15515D01*
X1196251Y15384D01*
X1196240Y15307D01*
X1196229Y15209D01*
X1196218Y15111D01*
Y14991D01*
X1196208Y14870D01*
X1196197Y14728D01*
Y14575D01*
Y14411D01*
Y11941D01*
X1194743D01*
Y17428D01*
X1196087D01*
Y16619D01*
X1196098Y16630D01*
X1196120Y16663D01*
X1196164Y16707D01*
X1196218Y16761D01*
X1196284Y16838D01*
X1196371Y16914D01*
X1196470Y17002D01*
X1196579Y17089D01*
X1196699Y17166D01*
X1196842Y17253D01*
X1196984Y17330D01*
X1197147Y17406D01*
X1197322Y17461D01*
X1197497Y17504D01*
X1197694Y17537D01*
X1197891Y17548D01*
X1197967D01*
X1198066Y17537D01*
D02*
G37*
G36*
X1173845Y17537D02*
X1173921Y17526D01*
X1174020Y17504D01*
X1174129Y17483D01*
X1174238Y17450D01*
X1174369Y17417D01*
X1174490Y17362D01*
X1174632Y17308D01*
X1174763Y17231D01*
X1174905Y17144D01*
X1175036Y17045D01*
X1175167Y16925D01*
X1175298Y16794D01*
X1175309Y16783D01*
X1175331Y16761D01*
X1175364Y16717D01*
X1175408Y16652D01*
X1175451Y16586D01*
X1175506Y16488D01*
X1175572Y16379D01*
X1175637Y16258D01*
X1175692Y16116D01*
X1175758Y15963D01*
X1175812Y15788D01*
X1175867Y15603D01*
X1175900Y15395D01*
X1175932Y15187D01*
X1175954Y14947D01*
X1175965Y14706D01*
Y14695D01*
Y14652D01*
Y14575D01*
X1175954Y14477D01*
X1175943Y14367D01*
X1175932Y14236D01*
X1175910Y14083D01*
X1175878Y13930D01*
X1175801Y13581D01*
X1175747Y13406D01*
X1175681Y13231D01*
X1175605Y13056D01*
X1175506Y12892D01*
X1175408Y12728D01*
X1175288Y12575D01*
X1175277Y12564D01*
X1175255Y12542D01*
X1175222Y12509D01*
X1175167Y12455D01*
X1175102Y12400D01*
X1175025Y12335D01*
X1174938Y12269D01*
X1174839Y12203D01*
X1174719Y12127D01*
X1174599Y12061D01*
X1174326Y11941D01*
X1174173Y11886D01*
X1174009Y11854D01*
X1173845Y11832D01*
X1173670Y11821D01*
X1173593D01*
X1173506Y11832D01*
X1173397Y11843D01*
X1173265Y11865D01*
X1173123Y11897D01*
X1172981Y11941D01*
X1172839Y11996D01*
X1172828Y12007D01*
X1172774Y12028D01*
X1172708Y12083D01*
X1172610Y12149D01*
X1172489Y12225D01*
X1172369Y12335D01*
X1172227Y12466D01*
X1172074Y12619D01*
Y9843D01*
X1170620D01*
Y17428D01*
X1171976D01*
Y16619D01*
X1171987Y16641D01*
X1172019Y16685D01*
X1172085Y16761D01*
X1172161Y16860D01*
X1172260Y16969D01*
X1172391Y17078D01*
X1172522Y17188D01*
X1172686Y17286D01*
X1172708Y17297D01*
X1172763Y17330D01*
X1172861Y17373D01*
X1172981Y17417D01*
X1173123Y17461D01*
X1173298Y17504D01*
X1173484Y17537D01*
X1173681Y17548D01*
X1173768D01*
X1173845Y17537D01*
D02*
G37*
G36*
X1206427Y17537D02*
X1206536Y17526D01*
X1206657Y17515D01*
X1206788Y17504D01*
X1207061Y17461D01*
X1207334Y17395D01*
X1207597Y17297D01*
X1207717Y17242D01*
X1207826Y17177D01*
X1207837D01*
X1207848Y17155D01*
X1207913Y17111D01*
X1208012Y17023D01*
X1208121Y16903D01*
X1208252Y16761D01*
X1208373Y16575D01*
X1208493Y16357D01*
X1208580Y16105D01*
X1207214Y15854D01*
Y15865D01*
X1207192Y15909D01*
X1207170Y15963D01*
X1207137Y16029D01*
X1207094Y16116D01*
X1207028Y16193D01*
X1206963Y16269D01*
X1206875Y16335D01*
X1206864Y16346D01*
X1206831Y16368D01*
X1206777Y16390D01*
X1206700Y16422D01*
X1206602Y16455D01*
X1206482Y16488D01*
X1206340Y16499D01*
X1206176Y16510D01*
X1206077D01*
X1205979Y16499D01*
X1205859Y16488D01*
X1205717Y16466D01*
X1205585Y16444D01*
X1205465Y16400D01*
X1205356Y16346D01*
X1205345D01*
X1205334Y16324D01*
X1205279Y16269D01*
X1205214Y16171D01*
X1205203Y16116D01*
X1205192Y16051D01*
Y16040D01*
Y16029D01*
X1205214Y15963D01*
X1205258Y15876D01*
X1205290Y15832D01*
X1205334Y15789D01*
X1205345Y15777D01*
X1205389Y15767D01*
X1205411Y15745D01*
X1205454Y15734D01*
X1205509Y15712D01*
X1205575Y15679D01*
X1205662Y15657D01*
X1205749Y15624D01*
X1205859Y15592D01*
X1205990Y15559D01*
X1206132Y15515D01*
X1206296Y15472D01*
X1206482Y15428D01*
X1206689Y15373D01*
X1206700D01*
X1206744Y15362D01*
X1206799Y15351D01*
X1206875Y15329D01*
X1206974Y15297D01*
X1207083Y15275D01*
X1207323Y15198D01*
X1207597Y15100D01*
X1207859Y14991D01*
X1207990Y14925D01*
X1208110Y14870D01*
X1208209Y14794D01*
X1208307Y14728D01*
X1208329Y14706D01*
X1208383Y14663D01*
X1208449Y14575D01*
X1208537Y14455D01*
X1208624Y14302D01*
X1208690Y14116D01*
X1208744Y13898D01*
X1208766Y13657D01*
Y13646D01*
Y13624D01*
Y13581D01*
X1208755Y13526D01*
X1208744Y13471D01*
X1208733Y13395D01*
X1208690Y13209D01*
X1208613Y13012D01*
X1208558Y12903D01*
X1208504Y12794D01*
X1208427Y12684D01*
X1208340Y12575D01*
X1208241Y12466D01*
X1208132Y12356D01*
X1208121Y12346D01*
X1208099Y12335D01*
X1208067Y12313D01*
X1208012Y12269D01*
X1207946Y12236D01*
X1207870Y12192D01*
X1207771Y12138D01*
X1207662Y12094D01*
X1207542Y12039D01*
X1207400Y11996D01*
X1207247Y11941D01*
X1207083Y11908D01*
X1206897Y11875D01*
X1206700Y11843D01*
X1206493Y11832D01*
X1206274Y11821D01*
X1206165D01*
X1206088Y11832D01*
X1205990D01*
X1205881Y11843D01*
X1205760Y11854D01*
X1205629Y11875D01*
X1205345Y11930D01*
X1205050Y12007D01*
X1204755Y12116D01*
X1204624Y12192D01*
X1204492Y12269D01*
X1204482Y12280D01*
X1204460Y12291D01*
X1204427Y12313D01*
X1204394Y12356D01*
X1204274Y12455D01*
X1204143Y12597D01*
X1204001Y12772D01*
X1203869Y12979D01*
X1203749Y13231D01*
X1203651Y13504D01*
X1205105Y13723D01*
Y13701D01*
X1205126Y13657D01*
X1205148Y13581D01*
X1205181Y13482D01*
X1205236Y13373D01*
X1205301Y13274D01*
X1205378Y13165D01*
X1205476Y13078D01*
X1205487Y13067D01*
X1205531Y13045D01*
X1205596Y13012D01*
X1205684Y12979D01*
X1205793Y12936D01*
X1205935Y12903D01*
X1206088Y12881D01*
X1206274Y12870D01*
X1206361D01*
X1206471Y12881D01*
X1206591Y12892D01*
X1206722Y12914D01*
X1206864Y12958D01*
X1206995Y13001D01*
X1207116Y13067D01*
X1207127Y13078D01*
X1207148Y13100D01*
X1207181Y13133D01*
X1207214Y13176D01*
X1207247Y13231D01*
X1207280Y13296D01*
X1207302Y13373D01*
X1207312Y13460D01*
Y13471D01*
Y13493D01*
X1207302Y13559D01*
X1207269Y13646D01*
X1207203Y13734D01*
X1207181Y13756D01*
X1207148Y13766D01*
X1207105Y13799D01*
X1207039Y13821D01*
X1206952Y13854D01*
X1206853Y13887D01*
X1206722Y13919D01*
X1206700D01*
X1206646Y13941D01*
X1206558Y13963D01*
X1206438Y13985D01*
X1206296Y14018D01*
X1206143Y14062D01*
X1205968Y14105D01*
X1205782Y14160D01*
X1205400Y14269D01*
X1205214Y14324D01*
X1205039Y14389D01*
X1204875Y14444D01*
X1204722Y14510D01*
X1204591Y14575D01*
X1204492Y14630D01*
X1204482Y14641D01*
X1204460Y14652D01*
X1204438Y14674D01*
X1204394Y14717D01*
X1204285Y14816D01*
X1204175Y14958D01*
X1204055Y15133D01*
X1203946Y15340D01*
X1203902Y15461D01*
X1203880Y15592D01*
X1203858Y15723D01*
X1203848Y15865D01*
Y15876D01*
Y15898D01*
Y15931D01*
X1203858Y15985D01*
X1203869Y16040D01*
X1203880Y16116D01*
X1203913Y16280D01*
X1203979Y16466D01*
X1204088Y16663D01*
X1204143Y16772D01*
X1204219Y16871D01*
X1204307Y16969D01*
X1204405Y17056D01*
X1204416Y17067D01*
X1204427Y17078D01*
X1204460Y17100D01*
X1204514Y17133D01*
X1204569Y17166D01*
X1204646Y17209D01*
X1204733Y17253D01*
X1204831Y17308D01*
X1204951Y17351D01*
X1205083Y17395D01*
X1205225Y17439D01*
X1205378Y17472D01*
X1205553Y17504D01*
X1205739Y17526D01*
X1205935Y17548D01*
X1206340D01*
X1206427Y17537D01*
D02*
G37*
G36*
X1185802Y11941D02*
X1184491D01*
X1182283Y17428D01*
X1183802D01*
X1184840Y14619D01*
X1185135Y13690D01*
X1185146Y13701D01*
X1185157Y13745D01*
X1185179Y13810D01*
X1185201Y13876D01*
X1185256Y14040D01*
X1185277Y14105D01*
X1185288Y14160D01*
Y14171D01*
X1185299Y14204D01*
X1185310Y14247D01*
X1185332Y14302D01*
X1185376Y14455D01*
X1185441Y14619D01*
X1186491Y17428D01*
X1187977D01*
X1185802Y11941D01*
D02*
G37*
G36*
X1211488Y11941D02*
X1210034D01*
Y17428D01*
X1211488D01*
Y11941D01*
D02*
G37*
G36*
X1202667D02*
X1201213D01*
Y13395D01*
X1202667D01*
Y11941D01*
D02*
G37*
G36*
X1193267D02*
X1191814D01*
Y17428D01*
X1193267D01*
Y11941D01*
D02*
G37*
G36*
X1190327D02*
X1188873Y11941D01*
Y19505D01*
X1190327Y19505D01*
Y11941D01*
D02*
G37*
G36*
X1179496Y17537D02*
X1179583D01*
X1179802Y17515D01*
X1180031Y17493D01*
X1180272Y17450D01*
X1180501Y17384D01*
X1180599Y17351D01*
X1180698Y17308D01*
X1180709D01*
X1180720Y17297D01*
X1180774Y17264D01*
X1180862Y17220D01*
X1180960Y17155D01*
X1181080Y17067D01*
X1181190Y16969D01*
X1181288Y16849D01*
X1181376Y16728D01*
X1181386Y16707D01*
X1181408Y16663D01*
X1181441Y16565D01*
X1181452Y16510D01*
X1181474Y16433D01*
X1181496Y16357D01*
X1181507Y16258D01*
X1181528Y16149D01*
X1181540Y16029D01*
X1181550Y15898D01*
X1181561Y15756D01*
X1181572Y15603D01*
Y15428D01*
X1181550Y13734D01*
Y13723D01*
Y13701D01*
Y13668D01*
Y13613D01*
Y13482D01*
X1181561Y13329D01*
Y13154D01*
X1181583Y12979D01*
X1181594Y12805D01*
X1181616Y12663D01*
Y12652D01*
X1181627Y12608D01*
X1181649Y12531D01*
X1181671Y12444D01*
X1181714Y12335D01*
X1181758Y12214D01*
X1181813Y12083D01*
X1181878Y11941D01*
X1180447D01*
Y11952D01*
X1180435Y11963D01*
X1180425Y12007D01*
X1180403Y12050D01*
X1180381Y12105D01*
X1180359Y12182D01*
X1180337Y12269D01*
X1180304Y12367D01*
Y12378D01*
X1180293Y12389D01*
X1180282Y12433D01*
X1180261Y12488D01*
X1180250Y12531D01*
X1180228Y12520D01*
X1180184Y12477D01*
X1180108Y12411D01*
X1180009Y12335D01*
X1179889Y12247D01*
X1179758Y12149D01*
X1179605Y12072D01*
X1179452Y11996D01*
X1179430Y11985D01*
X1179375Y11974D01*
X1179288Y11941D01*
X1179179Y11908D01*
X1179047Y11875D01*
X1178894Y11854D01*
X1178720Y11832D01*
X1178545Y11821D01*
X1178468D01*
X1178403Y11832D01*
X1178337D01*
X1178249Y11843D01*
X1178064Y11875D01*
X1177845Y11930D01*
X1177627Y12007D01*
X1177408Y12116D01*
X1177211Y12269D01*
Y12280D01*
X1177189Y12291D01*
X1177135Y12356D01*
X1177058Y12455D01*
X1176971Y12586D01*
X1176883Y12750D01*
X1176807Y12947D01*
X1176752Y13176D01*
X1176741Y13296D01*
X1176730Y13428D01*
Y13449D01*
Y13504D01*
X1176741Y13591D01*
X1176763Y13701D01*
X1176785Y13832D01*
X1176818Y13963D01*
X1176872Y14105D01*
X1176949Y14247D01*
X1176960Y14269D01*
X1176993Y14313D01*
X1177036Y14378D01*
X1177113Y14455D01*
X1177189Y14542D01*
X1177299Y14641D01*
X1177419Y14728D01*
X1177561Y14805D01*
X1177583Y14816D01*
X1177637Y14838D01*
X1177725Y14870D01*
X1177856Y14925D01*
X1178020Y14980D01*
X1178217Y15034D01*
X1178457Y15089D01*
X1178720Y15144D01*
X1178730D01*
X1178763Y15155D01*
X1178818Y15165D01*
X1178883Y15176D01*
X1178971Y15187D01*
X1179069Y15209D01*
X1179288Y15264D01*
X1179517Y15318D01*
X1179758Y15373D01*
X1179965Y15439D01*
X1180064Y15472D01*
X1180140Y15504D01*
Y15646D01*
Y15668D01*
Y15712D01*
X1180130Y15788D01*
X1180118Y15887D01*
X1180086Y15985D01*
X1180053Y16083D01*
X1179998Y16171D01*
X1179922Y16248D01*
X1179911Y16258D01*
X1179878Y16280D01*
X1179823Y16302D01*
X1179747Y16346D01*
X1179638Y16379D01*
X1179506Y16400D01*
X1179342Y16422D01*
X1179146Y16433D01*
X1179080D01*
X1179015Y16422D01*
X1178927Y16411D01*
X1178829Y16390D01*
X1178720Y16368D01*
X1178621Y16324D01*
X1178534Y16269D01*
X1178523Y16258D01*
X1178501Y16237D01*
X1178457Y16204D01*
X1178413Y16149D01*
X1178348Y16073D01*
X1178293Y15974D01*
X1178239Y15865D01*
X1178184Y15734D01*
X1176883Y15974D01*
Y15985D01*
X1176894Y16007D01*
X1176905Y16051D01*
X1176927Y16105D01*
X1176949Y16171D01*
X1176982Y16248D01*
X1177058Y16422D01*
X1177167Y16608D01*
X1177299Y16805D01*
X1177452Y16991D01*
X1177637Y17155D01*
X1177648D01*
X1177659Y17177D01*
X1177692Y17188D01*
X1177736Y17220D01*
X1177801Y17242D01*
X1177867Y17275D01*
X1177954Y17319D01*
X1178042Y17351D01*
X1178151Y17384D01*
X1178271Y17428D01*
X1178403Y17461D01*
X1178556Y17483D01*
X1178709Y17515D01*
X1178883Y17526D01*
X1179058Y17548D01*
X1179419D01*
X1179496Y17537D01*
D02*
G37*
G36*
X1169167Y11941D02*
X1167713D01*
Y13395D01*
X1169167D01*
Y11941D01*
D02*
G37*
G36*
X1164128Y17537D02*
X1164226Y17526D01*
X1164347Y17504D01*
X1164478Y17483D01*
X1164620Y17450D01*
X1164773Y17406D01*
X1164926Y17351D01*
X1165090Y17286D01*
X1165254Y17198D01*
X1165407Y17111D01*
X1165560Y17002D01*
X1165713Y16871D01*
X1165844Y16728D01*
X1165855Y16717D01*
X1165877Y16696D01*
X1165909Y16641D01*
X1165953Y16575D01*
X1166008Y16488D01*
X1166063Y16390D01*
X1166128Y16258D01*
X1166194Y16116D01*
X1166259Y15952D01*
X1166325Y15767D01*
X1166380Y15570D01*
X1166434Y15340D01*
X1166478Y15100D01*
X1166511Y14838D01*
X1166533Y14564D01*
Y14258D01*
X1162904D01*
Y14247D01*
Y14225D01*
Y14193D01*
X1162915Y14149D01*
X1162926Y14040D01*
X1162947Y13887D01*
X1162991Y13734D01*
X1163057Y13559D01*
X1163133Y13395D01*
X1163243Y13253D01*
X1163254Y13242D01*
X1163308Y13198D01*
X1163374Y13143D01*
X1163472Y13078D01*
X1163592Y13012D01*
X1163745Y12958D01*
X1163909Y12914D01*
X1164084Y12903D01*
X1164139D01*
X1164205Y12914D01*
X1164281Y12925D01*
X1164368Y12947D01*
X1164467Y12979D01*
X1164565Y13023D01*
X1164653Y13089D01*
X1164664Y13100D01*
X1164696Y13122D01*
X1164740Y13165D01*
X1164784Y13231D01*
X1164849Y13318D01*
X1164904Y13417D01*
X1164959Y13548D01*
X1165013Y13690D01*
X1166456Y13449D01*
Y13439D01*
X1166445Y13417D01*
X1166423Y13373D01*
X1166401Y13318D01*
X1166369Y13253D01*
X1166336Y13176D01*
X1166237Y13001D01*
X1166117Y12805D01*
X1165964Y12597D01*
X1165778Y12411D01*
X1165571Y12236D01*
X1165560D01*
X1165549Y12214D01*
X1165505Y12203D01*
X1165461Y12171D01*
X1165407Y12138D01*
X1165330Y12105D01*
X1165254Y12072D01*
X1165155Y12028D01*
X1164937Y11952D01*
X1164685Y11886D01*
X1164390Y11843D01*
X1164073Y11821D01*
X1164008D01*
X1163942Y11832D01*
X1163844D01*
X1163724Y11854D01*
X1163581Y11875D01*
X1163428Y11897D01*
X1163275Y11941D01*
X1163101Y11985D01*
X1162926Y12050D01*
X1162751Y12127D01*
X1162576Y12214D01*
X1162401Y12324D01*
X1162237Y12444D01*
X1162095Y12586D01*
X1161953Y12750D01*
X1161942Y12761D01*
X1161931Y12783D01*
X1161909Y12826D01*
X1161866Y12881D01*
X1161833Y12958D01*
X1161789Y13045D01*
X1161734Y13143D01*
X1161691Y13264D01*
X1161636Y13395D01*
X1161592Y13537D01*
X1161538Y13690D01*
X1161505Y13865D01*
X1161472Y14040D01*
X1161439Y14225D01*
X1161428Y14433D01*
X1161417Y14641D01*
Y14652D01*
Y14695D01*
Y14772D01*
X1161428Y14870D01*
X1161439Y14980D01*
X1161450Y15111D01*
X1161472Y15253D01*
X1161505Y15417D01*
X1161592Y15756D01*
X1161647Y15931D01*
X1161712Y16116D01*
X1161800Y16291D01*
X1161898Y16455D01*
X1162008Y16619D01*
X1162128Y16772D01*
X1162139Y16783D01*
X1162161Y16805D01*
X1162204Y16849D01*
X1162259Y16892D01*
X1162325Y16947D01*
X1162412Y17013D01*
X1162510Y17089D01*
X1162620Y17166D01*
X1162740Y17231D01*
X1162882Y17308D01*
X1163024Y17373D01*
X1163188Y17428D01*
X1163352Y17472D01*
X1163538Y17515D01*
X1163724Y17537D01*
X1163920Y17548D01*
X1164040D01*
X1164128Y17537D01*
D02*
G37*
%LPC*%
G36*
X33630Y14301D02*
X32493D01*
Y12148D01*
X33542D01*
X33619Y12159D01*
X33815D01*
X34012Y12169D01*
X34209Y12191D01*
X34384Y12224D01*
X34460Y12235D01*
X34526Y12257D01*
X34537Y12268D01*
X34580Y12279D01*
X34635Y12312D01*
X34701Y12344D01*
X34777Y12399D01*
X34854Y12465D01*
X34941Y12541D01*
X35007Y12629D01*
X35018Y12640D01*
X35039Y12672D01*
X35061Y12727D01*
X35094Y12803D01*
X35127Y12891D01*
X35160Y12989D01*
X35171Y13099D01*
X35182Y13219D01*
Y13241D01*
Y13284D01*
X35171Y13361D01*
X35149Y13459D01*
X35116Y13568D01*
X35072Y13689D01*
X35018Y13798D01*
X34930Y13907D01*
X34919Y13918D01*
X34887Y13951D01*
X34832Y13995D01*
X34766Y14050D01*
X34679Y14115D01*
X34569Y14170D01*
X34449Y14213D01*
X34318Y14246D01*
X34307D01*
X34264Y14257D01*
X34187Y14268D01*
X34078Y14279D01*
X33936D01*
X33837Y14290D01*
X33739D01*
X33630Y14301D01*
D02*
G37*
G36*
X26099Y14421D02*
X26011D01*
X25946Y14410D01*
X25858Y14399D01*
X25771Y14388D01*
X25552Y14345D01*
X25312Y14257D01*
X25181Y14213D01*
X25049Y14148D01*
X24929Y14071D01*
X24798Y13984D01*
X24678Y13885D01*
X24568Y13765D01*
X24558Y13754D01*
X24547Y13733D01*
X24514Y13700D01*
X24481Y13645D01*
X24437Y13568D01*
X24394Y13492D01*
X24339Y13394D01*
X24284Y13273D01*
X24230Y13142D01*
X24175Y13000D01*
X24131Y12836D01*
X24088Y12661D01*
X24055Y12465D01*
X24022Y12257D01*
X24011Y12038D01*
X24000Y11798D01*
Y11787D01*
Y11743D01*
Y11678D01*
X24011Y11590D01*
X24022Y11481D01*
X24033Y11350D01*
X24055Y11219D01*
X24077Y11066D01*
X24142Y10749D01*
X24252Y10432D01*
X24317Y10268D01*
X24394Y10115D01*
X24492Y9973D01*
X24590Y9841D01*
X24601Y9831D01*
X24623Y9809D01*
X24656Y9776D01*
X24700Y9743D01*
X24754Y9688D01*
X24831Y9634D01*
X24907Y9568D01*
X25006Y9514D01*
X25213Y9382D01*
X25476Y9284D01*
X25618Y9240D01*
X25771Y9207D01*
X25935Y9186D01*
X26099Y9175D01*
X26186D01*
X26252Y9186D01*
X26328Y9197D01*
X26416Y9207D01*
X26623Y9262D01*
X26864Y9339D01*
X26984Y9393D01*
X27115Y9448D01*
X27235Y9525D01*
X27367Y9612D01*
X27487Y9710D01*
X27596Y9831D01*
X27607Y9841D01*
X27618Y9863D01*
X27651Y9896D01*
X27684Y9951D01*
X27738Y10027D01*
X27782Y10115D01*
X27837Y10213D01*
X27891Y10333D01*
X27946Y10464D01*
X28001Y10606D01*
X28055Y10770D01*
X28099Y10956D01*
X28132Y11142D01*
X28164Y11350D01*
X28175Y11579D01*
X28186Y11820D01*
Y11831D01*
Y11874D01*
Y11940D01*
X28175Y12038D01*
X28164Y12148D01*
X28154Y12268D01*
X28143Y12410D01*
X28110Y12552D01*
X28044Y12869D01*
X27946Y13197D01*
X27880Y13361D01*
X27804Y13503D01*
X27705Y13645D01*
X27607Y13776D01*
X27596Y13787D01*
X27585Y13809D01*
X27552Y13831D01*
X27509Y13875D01*
X27443Y13929D01*
X27378Y13984D01*
X27301Y14039D01*
X27203Y14104D01*
X27104Y14159D01*
X26984Y14213D01*
X26733Y14323D01*
X26591Y14366D01*
X26438Y14388D01*
X26274Y14410D01*
X26099Y14421D01*
D02*
G37*
G36*
X1173276Y16400D02*
X1173254D01*
X1173189Y16390D01*
X1173091Y16379D01*
X1172970Y16346D01*
X1172828Y16302D01*
X1172675Y16226D01*
X1172533Y16127D01*
X1172391Y15985D01*
X1172380Y15963D01*
X1172336Y15909D01*
X1172282Y15810D01*
X1172227Y15679D01*
X1172161Y15504D01*
X1172107Y15297D01*
X1172063Y15056D01*
X1172052Y14772D01*
Y14761D01*
Y14728D01*
Y14684D01*
X1172063Y14619D01*
Y14542D01*
X1172074Y14455D01*
X1172096Y14258D01*
X1172140Y14029D01*
X1172205Y13799D01*
X1172293Y13591D01*
X1172347Y13493D01*
X1172413Y13406D01*
X1172435Y13384D01*
X1172478Y13340D01*
X1172555Y13264D01*
X1172664Y13187D01*
X1172785Y13111D01*
X1172937Y13034D01*
X1173112Y12990D01*
X1173298Y12968D01*
X1173320D01*
X1173386Y12979D01*
X1173473Y12990D01*
X1173593Y13023D01*
X1173724Y13067D01*
X1173867Y13143D01*
X1174009Y13242D01*
X1174140Y13373D01*
X1174151Y13395D01*
X1174195Y13449D01*
X1174249Y13548D01*
X1174315Y13690D01*
X1174337Y13777D01*
X1174369Y13876D01*
X1174402Y13985D01*
X1174424Y14105D01*
X1174446Y14236D01*
X1174468Y14378D01*
X1174479Y14532D01*
Y14695D01*
Y14706D01*
Y14739D01*
Y14783D01*
Y14838D01*
X1174468Y14914D01*
X1174457Y14990D01*
X1174435Y15176D01*
X1174391Y15384D01*
X1174337Y15603D01*
X1174249Y15799D01*
X1174129Y15974D01*
X1174118Y15996D01*
X1174063Y16040D01*
X1173987Y16105D01*
X1173888Y16193D01*
X1173768Y16269D01*
X1173626Y16335D01*
X1173462Y16379D01*
X1173276Y16400D01*
D02*
G37*
G36*
X1180140Y14564D02*
X1180130D01*
X1180086Y14542D01*
X1180020Y14532D01*
X1179922Y14499D01*
X1179802Y14466D01*
X1179638Y14422D01*
X1179463Y14378D01*
X1179244Y14335D01*
X1179222D01*
X1179189Y14324D01*
X1179146Y14313D01*
X1179047Y14291D01*
X1178916Y14258D01*
X1178785Y14225D01*
X1178654Y14182D01*
X1178545Y14127D01*
X1178457Y14083D01*
X1178446Y14072D01*
X1178413Y14051D01*
X1178370Y14007D01*
X1178326Y13952D01*
X1178271Y13876D01*
X1178228Y13788D01*
X1178195Y13690D01*
X1178184Y13581D01*
Y13570D01*
Y13526D01*
X1178195Y13471D01*
X1178217Y13406D01*
X1178239Y13318D01*
X1178271Y13231D01*
X1178326Y13143D01*
X1178403Y13056D01*
X1178413Y13045D01*
X1178446Y13023D01*
X1178490Y12990D01*
X1178566Y12947D01*
X1178643Y12903D01*
X1178741Y12870D01*
X1178862Y12848D01*
X1178982Y12837D01*
X1179047D01*
X1179124Y12848D01*
X1179222Y12870D01*
X1179342Y12903D01*
X1179463Y12947D01*
X1179605Y13001D01*
X1179736Y13089D01*
X1179747Y13100D01*
X1179780Y13122D01*
X1179823Y13165D01*
X1179878Y13220D01*
X1179933Y13296D01*
X1179987Y13373D01*
X1180042Y13471D01*
X1180075Y13570D01*
Y13581D01*
X1180086Y13602D01*
X1180097Y13657D01*
X1180108Y13723D01*
X1180118Y13821D01*
X1180130Y13941D01*
X1180140Y14094D01*
Y14269D01*
Y14564D01*
D02*
G37*
G36*
X1164008Y16433D02*
X1163931D01*
X1163844Y16411D01*
X1163735Y16390D01*
X1163614Y16346D01*
X1163483Y16291D01*
X1163352Y16204D01*
X1163232Y16083D01*
X1163221Y16073D01*
X1163188Y16018D01*
X1163133Y15942D01*
X1163079Y15832D01*
X1163013Y15701D01*
X1162969Y15537D01*
X1162937Y15351D01*
X1162926Y15144D01*
X1165090D01*
Y15155D01*
Y15176D01*
Y15198D01*
X1165079Y15242D01*
X1165068Y15362D01*
X1165046Y15493D01*
X1165002Y15646D01*
X1164948Y15810D01*
X1164860Y15963D01*
X1164762Y16094D01*
X1164751Y16105D01*
X1164707Y16149D01*
X1164642Y16204D01*
X1164554Y16269D01*
X1164445Y16324D01*
X1164314Y16379D01*
X1164172Y16422D01*
X1164008Y16433D01*
D02*
G37*
%LPD*%
D10*
X1141732Y21654D02*
D03*
Y68898D02*
D03*
Y116142D02*
D03*
Y163386D02*
D03*
Y210630D02*
D03*
Y399606D02*
D03*
Y352362D02*
D03*
Y305118D02*
D03*
Y257874D02*
D03*
Y588583D02*
D03*
Y541339D02*
D03*
Y494095D02*
D03*
Y446850D02*
D03*
Y777559D02*
D03*
Y730315D02*
D03*
Y683071D02*
D03*
Y635827D02*
D03*
Y824803D02*
D03*
X78740D02*
D03*
Y635827D02*
D03*
Y683071D02*
D03*
Y730315D02*
D03*
Y777559D02*
D03*
Y446850D02*
D03*
Y494095D02*
D03*
Y541339D02*
D03*
Y588583D02*
D03*
Y257874D02*
D03*
Y305118D02*
D03*
Y352362D02*
D03*
Y399606D02*
D03*
Y210630D02*
D03*
Y163386D02*
D03*
Y116142D02*
D03*
Y68898D02*
D03*
Y21654D02*
D03*
D11*
X1181102Y92520D02*
D03*
Y801181D02*
D03*
Y423228D02*
D03*
X39370Y45276D02*
D03*
Y423228D02*
D03*
Y801181D02*
D03*
D12*
X1220472Y0D02*
Y846457D01*
X0D02*
X1220472D01*
X-0Y0D02*
X0Y846457D01*
X-0Y0D02*
X1220472D01*
M02*
